<svg width="60" height="60" viewBox="0 0 60 60" fill="none" xmlns="http://www.w3.org/2000/svg">
<path d="M30 55C43.8071 55 55 43.8071 55 30C55 16.1929 43.8071 5 30 5C16.1929 5 5 16.1929 5 30C5 43.8071 16.1929 55 30 55Z" stroke="#6B21B5" stroke-width="4" stroke-linecap="round" stroke-linejoin="round"/>
<path d="M52.925 20H30" stroke="#6B21B5" stroke-width="4" stroke-linecap="round" stroke-linejoin="round"/>
<path d="M27.2 54.85L38.65 35" stroke="#6B21B5" stroke-width="4" stroke-linecap="round" stroke-linejoin="round"/>
<path d="M9.875 15.15L21.35 35" stroke="#6B21B5" stroke-width="4" stroke-linecap="round" stroke-linejoin="round"/>
<path d="M30 40C35.5228 40 40 35.5228 40 30C40 24.4772 35.5228 20 30 20C24.4772 20 20 24.4772 20 30C20 35.5228 24.4772 40 30 40Z" stroke="#FF6600" stroke-width="4" stroke-linecap="round" stroke-linejoin="round"/>
</svg>
