<svg width="20" height="20" viewBox="0 0 20 20" fill="none" xmlns="http://www.w3.org/2000/svg">
<path d="M4.51797 6.24761C5.46203 6.24761 6.22734 5.48229 6.22734 4.53823C6.22734 3.59417 5.46203 2.82886 4.51797 2.82886C3.57391 2.82886 2.80859 3.59417 2.80859 4.53823C2.80859 5.48229 3.57391 6.24761 4.51797 6.24761Z" fill="white"/>
<path d="M7.84141 7.54297V17.0266H10.7859V12.3367C10.7859 11.0992 11.0187 9.90078 12.5531 9.90078C14.0664 9.90078 14.0852 11.3156 14.0852 12.4148V17.0273H17.0312V11.8266C17.0312 9.27187 16.4812 7.30859 13.4953 7.30859C12.0617 7.30859 11.1008 8.09531 10.7078 8.83984H10.668V7.54297H7.84141ZM3.04297 7.54297H5.99219V17.0266H3.04297V7.54297Z" fill="white"/>
</svg>
