<svg width="20" height="20" viewBox="0 0 20 20" fill="none" xmlns="http://www.w3.org/2000/svg">
<path d="M17.4945 6.25235C17.4055 5.92219 17.2316 5.6211 16.9901 5.37904C16.7486 5.13698 16.4479 4.9624 16.1179 4.87266C14.8945 4.53672 9.99995 4.53126 9.99995 4.53126C9.99995 4.53126 5.1062 4.52579 3.88198 4.84688C3.55224 4.94075 3.25216 5.1178 3.01055 5.36105C2.76894 5.6043 2.59393 5.90557 2.5023 6.23594C2.17964 7.45938 2.17651 9.99688 2.17651 9.99688C2.17651 9.99688 2.17339 12.5469 2.4937 13.7578C2.67339 14.4274 3.20073 14.9563 3.87105 15.1367C5.10698 15.4727 9.98823 15.4781 9.98823 15.4781C9.98823 15.4781 14.8828 15.4836 16.1062 15.1633C16.4363 15.0737 16.7373 14.8995 16.9794 14.658C17.2215 14.4164 17.3963 14.1158 17.4867 13.7859C17.8101 12.5633 17.8125 10.0266 17.8125 10.0266C17.8125 10.0266 17.8281 7.47579 17.4945 6.25235ZM8.43433 12.3477L8.43823 7.66016L12.5062 10.0078L8.43433 12.3477Z" fill="white"/>
</svg>
