<svg width="20" height="20" viewBox="0 0 20 20" fill="none" xmlns="http://www.w3.org/2000/svg">
<path d="M16.9897 7.11323C16.9819 6.52153 16.8711 5.93571 16.6624 5.38198C16.4814 4.91491 16.205 4.49073 15.8508 4.13654C15.4966 3.78234 15.0724 3.50593 14.6054 3.32495C14.0588 3.11976 13.4813 3.00881 12.8976 2.99683C12.146 2.96323 11.9077 2.95386 9.9999 2.95386C8.09209 2.95386 7.84756 2.95386 7.10147 2.99683C6.518 3.0089 5.9408 3.11985 5.39443 3.32495C4.92729 3.5058 4.50304 3.78217 4.14883 4.13638C3.79462 4.49059 3.51825 4.91484 3.3374 5.38198C3.1318 5.92818 3.02109 6.50551 3.01006 7.08901C2.97646 7.84136 2.96631 8.07964 2.96631 9.98745C2.96631 11.8953 2.96631 12.139 3.01006 12.8859C3.02178 13.4703 3.13193 14.0468 3.3374 14.5945C3.51856 15.0615 3.79513 15.4856 4.14946 15.8396C4.50379 16.1937 4.92808 16.4699 5.39522 16.6507C5.94009 16.8642 6.51738 16.9831 7.10225 17.0023C7.85459 17.0359 8.09287 17.046 10.0007 17.046C11.9085 17.046 12.153 17.046 12.8991 17.0023C13.4828 16.9908 14.0603 16.8801 14.6069 16.6749C15.0739 16.4938 15.498 16.2173 15.8521 15.8631C16.2063 15.5089 16.4828 15.0849 16.664 14.6179C16.8694 14.071 16.9796 13.4945 16.9913 12.9093C17.0249 12.1578 17.0351 11.9195 17.0351 10.0109C17.0335 8.10308 17.0335 7.86089 16.9897 7.11323ZM9.99522 13.5953C7.9999 13.5953 6.3835 11.9789 6.3835 9.98354C6.3835 7.98823 7.9999 6.37183 9.99522 6.37183C10.9531 6.37183 11.8718 6.75235 12.5491 7.42967C13.2264 8.107 13.6069 9.02566 13.6069 9.98354C13.6069 10.9414 13.2264 11.8601 12.5491 12.5374C11.8718 13.2147 10.9531 13.5953 9.99522 13.5953ZM13.7507 7.08042C13.6401 7.08052 13.5305 7.05881 13.4283 7.01652C13.326 6.97423 13.2332 6.9122 13.1549 6.83398C13.0767 6.75575 13.0147 6.66287 12.9724 6.56064C12.9301 6.45842 12.9084 6.34886 12.9085 6.23823C12.9085 6.12769 12.9303 6.01822 12.9726 5.91609C13.0149 5.81396 13.0769 5.72116 13.1551 5.64299C13.2332 5.56482 13.326 5.50282 13.4282 5.46051C13.5303 5.41821 13.6397 5.39644 13.7503 5.39644C13.8608 5.39644 13.9703 5.41821 14.0724 5.46051C14.1746 5.50282 14.2674 5.56482 14.3455 5.64299C14.4237 5.72116 14.4857 5.81396 14.528 5.91609C14.5703 6.01822 14.5921 6.12769 14.5921 6.23823C14.5921 6.70386 14.2155 7.08042 13.7507 7.08042Z" fill="white"/>
<path d="M9.99526 12.3296C11.291 12.3296 12.3414 11.2793 12.3414 9.98355C12.3414 8.68783 11.291 7.63745 9.99526 7.63745C8.69955 7.63745 7.64917 8.68783 7.64917 9.98355C7.64917 11.2793 8.69955 12.3296 9.99526 12.3296Z" fill="white"/>
</svg>
